<svg width="21568" height="14977" viewBox="0 0 21568 14977" fill="none" xmlns="http://www.w3.org/2000/svg">
<rect width="21568" height="14977" fill="#140428"/>
<g clip-path="url(#clip0)">
<path d="M20406.3 12510.4C20313.2 12510.4 20223.9 12551 20140.6 12624.7C19914.2 11893.4 19563.6 11423.4 19169.8 11423.4C18776 11423.4 18425.4 11893.4 18199 12624.7C18115.7 12551 18026.4 12510.4 17933.3 12510.4C17485.9 12510.4 17123.1 13435.1 17123.1 14575.8H21216.4C21216.4 13435.1 20853.7 12510.4 20406.3 12510.4Z" fill="#D0CDE1"/>
<path d="M8296.99 11341.7C8200.71 11343.5 8107.6 11372.8 8031.3 11425.5C7804.85 10889.2 7454.3 10544.6 7060.47 10544.6C6666.64 10544.6 6316.09 10889.2 6089.64 11425.5C6013.34 11372.8 5920.23 11343.5 5823.95 11341.7C5376.53 11341.7 5013.82 12019.8 5013.82 12856.3H9107.12C9107.12 12019.8 8744.41 11341.7 8296.99 11341.7Z" fill="#D0CDE1"/>
<path d="M21568 14977H35.9766C55.3771 13409.2 4868.2 12139.9 10802 12139.9C16735.8 12139.9 21548.6 13409.2 21568 14977Z" fill="#3F3D56"/>
<g clip-path="url(#clip1)">
<path d="M593.736 13676.8C686.438 13676.8 761.587 13604.6 761.587 13515.6C761.587 13426.6 686.438 13354.5 593.736 13354.5C501.034 13354.5 425.885 13426.6 425.885 13515.6C425.885 13604.6 501.034 13676.8 593.736 13676.8Z" fill="#FF6584"/>
<path d="M1410.4 14120.2C1410.4 14500.4 1174.95 14633.1 884.508 14633.1C594.069 14633.1 358.621 14500.4 358.621 14120.2C358.621 13740 884.508 13256.3 884.508 13256.3C884.508 13256.3 1410.4 13740 1410.4 14120.2Z" fill="#F2F2F2"/>
<path d="M865.348 14575L870.735 14256.8L1094.88 13863.1L871.58 14206.9L874 14063.8L1028.48 13779L874.64 14025.9L878.994 13768.6L1044.42 13541.9L879.681 13728.2L882.401 13256.3L865.301 13880.9L866.707 13855.2L698.523 13608L864.011 13904.6L848.34 14192L847.873 14184.4L653.984 13924.3L847.286 14211.3L845.327 14247.3L844.975 14247.8L845.135 14250.8L805.378 14979.9H858.498L864.871 14603.3L1057.7 14317L865.348 14575Z" fill="#3F3D56"/>
<path d="M2975.13 14275.9C2975.13 14587.1 2782.4 14695.8 2544.66 14695.8C2306.92 14695.8 2114.2 14587.1 2114.2 14275.9C2114.2 13964.7 2544.66 13568.8 2544.66 13568.8C2544.66 13568.8 2975.13 13964.7 2975.13 14275.9Z" fill="#F2F2F2"/>
<path d="M2528.98 14648.2L2533.39 14387.7L2716.86 14065.5L2534.08 14346.9L2536.06 14229.7L2662.51 13996.6L2536.58 14198.8L2540.15 13988.1L2675.55 13802.5L2540.71 13955L2542.94 13568.8L2528.94 14080.1L2530.09 14059L2392.42 13856.7L2527.88 14099.5L2515.06 14334.7L2514.67 14328.5L2355.97 14115.6L2514.19 14350.5L2512.59 14379.9L2512.3 14380.4L2512.43 14382.8L2479.89 14979.6H2523.37L2528.59 14671.3L2686.42 14437L2528.98 14648.2Z" fill="#3F3D56"/>
<path d="M1490.69 15040.1C2294 15040.1 2945.21 15008.5 2945.21 14969.5C2945.21 14930.6 2294 14899 1490.69 14899C687.384 14899 36.1758 14930.6 36.1758 14969.5C36.1758 15008.5 687.384 15040.1 1490.69 15040.1Z" fill="#3F3D56"/>
<path d="M290.795 14880.9C405.223 14880.9 497.986 14791.8 497.986 14682C497.986 14572.1 405.223 14483.1 290.795 14483.1C176.366 14483.1 83.6035 14572.1 83.6035 14682C83.6035 14791.8 176.366 14880.9 290.795 14880.9Z" fill="#2F2E41"/>
<path d="M257.409 14837.7L194.469 14837L193.14 14945.3L256.08 14946L257.409 14837.7Z" fill="#2F2E41"/>
<path d="M383.287 14839.1L320.348 14838.4L319.019 14946.7L381.959 14947.4L383.287 14839.1Z" fill="#2F2E41"/>
<path d="M298.024 14947.7C298.152 14937.3 274.773 14928.6 245.806 14928.2C216.839 14927.9 193.252 14936.1 193.124 14946.5C192.996 14957 216.375 14965.7 245.342 14966C274.31 14966.3 297.896 14958.1 298.024 14947.7Z" fill="#2F2E41"/>
<path d="M423.936 14946.6C424.064 14936.2 400.685 14927.5 371.718 14927.1C342.751 14926.8 319.164 14935 319.036 14945.4C318.908 14955.9 342.287 14964.6 371.255 14964.9C400.222 14965.2 423.808 14957 423.936 14946.6Z" fill="#2F2E41"/>
<path d="M296.656 14699.7C335.764 14699.7 367.468 14669.2 367.468 14631.7C367.468 14594.2 335.764 14563.7 296.656 14563.7C257.547 14563.7 225.844 14594.2 225.844 14631.7C225.844 14669.2 257.547 14699.7 296.656 14699.7Z" fill="white"/>
<path d="M296.657 14654.4C309.693 14654.4 320.261 14644.2 320.261 14631.7C320.261 14619.2 309.693 14609 296.657 14609C283.621 14609 273.053 14619.2 273.053 14631.7C273.053 14644.2 283.621 14654.4 296.657 14654.4Z" fill="#3F3D56"/>
<path d="M92.0968 14494.8C76.251 14422.7 130.617 14350.6 213.528 14333.8C296.438 14317 376.496 14361.9 392.342 14434C408.188 14506.1 353.058 14532 270.148 14548.8C187.238 14565.6 107.943 14566.9 92.0968 14494.8Z" fill="#6C63FF"/>
<path d="M606.848 14793C606.848 14931.6 520.982 14980 415.052 14980C412.598 14980 410.148 14980 407.702 14980C402.794 14979.9 397.933 14979.6 393.13 14979.3C297.53 14972.8 223.256 14921.9 223.256 14793C223.256 14659.5 400.912 14491.1 414.257 14478.6L414.281 14478.6C414.795 14478.1 415.052 14477.9 415.052 14477.9C415.052 14477.9 606.848 14654.3 606.848 14793Z" fill="#6C63FF"/>
<path d="M408.065 14958.8L478.213 14864.7L407.889 14969.2L407.703 14980C402.795 14979.9 397.933 14979.6 393.131 14979.3L400.691 14840.6L400.633 14839.5L400.761 14839.3L401.474 14826.2L330.975 14721.5L401.696 14816.4L401.86 14819.2L407.574 14714.3L347.218 14606.2L408.31 14695.9L414.258 14478.6L414.281 14477.9V14478.6L413.288 14650L473.376 14582L413.043 14664.7L411.454 14758.6L467.556 14668.5L411.22 14772.4L410.332 14824.6L491.781 14699.2L410.028 14842.8L408.065 14958.8Z" fill="#3F3D56"/>
<path d="M1904.79 14878.7C2019.22 14878.7 2111.98 14789.7 2111.98 14679.8C2111.98 14570 2019.22 14480.9 1904.79 14480.9C1790.36 14480.9 1697.6 14570 1697.6 14679.8C1697.6 14789.7 1790.36 14878.7 1904.79 14878.7Z" fill="#2F2E41"/>
<path d="M1922.48 14837.9L1862.31 14855.7L1895.44 14959.2L1955.6 14941.4L1922.48 14837.9Z" fill="#2F2E41"/>
<path d="M2042.81 14802.4L1982.64 14820.2L2015.77 14923.7L2075.94 14905.9L2042.81 14802.4Z" fill="#2F2E41"/>
<path d="M1951.74 14963.6C1979.43 14955.5 1999.3 14940.7 1996.1 14930.8C1992.91 14920.8 1967.88 14919.4 1940.19 14927.5C1912.49 14935.7 1892.63 14950.4 1895.83 14960.4C1899.02 14970.3 1924.05 14971.8 1951.74 14963.6Z" fill="#2F2E41"/>
<path d="M2071.31 14925.7C2099 14917.5 2118.86 14902.8 2115.67 14892.9C2112.47 14882.9 2087.44 14881.4 2059.75 14889.6C2032.06 14897.8 2012.2 14912.5 2015.39 14922.5C2018.58 14932.4 2043.61 14933.9 2071.31 14925.7Z" fill="#2F2E41"/>
<path d="M1894.4 14698.2C1933.5 14698.2 1965.21 14667.8 1965.21 14630.2C1965.21 14592.7 1933.5 14562.3 1894.4 14562.3C1855.29 14562.3 1823.58 14592.7 1823.58 14630.2C1823.58 14667.8 1855.29 14698.2 1894.4 14698.2Z" fill="white"/>
<path d="M1894.4 14652.9C1907.43 14652.9 1918 14642.7 1918 14630.2C1918 14617.7 1907.43 14607.6 1894.4 14607.6C1881.36 14607.6 1870.79 14617.7 1870.79 14630.2C1870.79 14642.7 1881.36 14652.9 1894.4 14652.9Z" fill="#3F3D56"/>
<path d="M1656.07 14559.7C1618.07 14495.7 1646.95 14411.1 1720.58 14370.9C1794.2 14330.6 1884.69 14349.9 1922.69 14413.9C1960.69 14477.9 1916.42 14518.7 1842.8 14559C1769.17 14599.3 1694.07 14623.7 1656.07 14559.7Z" fill="#6C63FF"/>
<path d="M1535.28 14767.6C1535.28 14894.8 1456.46 14939.3 1359.22 14939.3C1356.96 14939.3 1354.71 14939.3 1352.47 14939.2C1347.96 14939.1 1343.5 14938.9 1339.09 14938.6C1251.34 14932.7 1183.16 14885.9 1183.16 14767.6C1183.16 14645.1 1346.24 14490.5 1358.49 14479L1358.51 14479C1358.98 14478.6 1359.22 14478.4 1359.22 14478.4C1359.22 14478.4 1535.28 14640.3 1535.28 14767.6Z" fill="#6C63FF"/>
<path d="M1352.8 14919.8L1417.2 14833.4L1352.64 14929.3L1352.47 14939.2C1347.96 14939.1 1343.5 14938.9 1339.09 14938.6L1346.03 14811.3L1345.98 14810.3L1346.1 14810.1L1346.75 14798.1L1282.04 14702L1346.96 14789.1L1347.11 14791.6L1352.35 14695.4L1296.95 14596.1L1353.03 14678.5L1358.49 14479L1358.51 14478.4V14479L1357.6 14636.3L1412.75 14574L1357.37 14649.9L1355.91 14736L1407.41 14653.3L1355.7 14748.7L1354.88 14796.6L1429.65 14681.5L1354.6 14813.3L1352.8 14919.8Z" fill="#3F3D56"/>
<path d="M2227.66 14820.6C2227.66 14959.3 2141.79 15007.7 2035.86 15007.7C2033.41 15007.7 2030.96 15007.7 2028.51 15007.6C2023.61 15007.5 2018.75 15007.3 2013.94 15007C1918.34 15000.5 1844.07 14949.6 1844.07 14820.6C1844.07 14687.2 2021.72 14518.8 2035.07 14506.3L2035.09 14506.3C2035.61 14505.8 2035.86 14505.6 2035.86 14505.6C2035.86 14505.6 2227.66 14682 2227.66 14820.6Z" fill="#6C63FF"/>
<path d="M2028.88 14986.5L2099.03 14892.4L2028.7 14996.8L2028.52 15007.6C2023.61 15007.5 2018.75 15007.3 2013.94 15007L2021.5 14868.3L2021.45 14867.2L2021.57 14867L2022.29 14853.9L1951.79 14749.2L2022.51 14844.1L2022.67 14846.9L2028.39 14742L1968.03 14633.9L2029.12 14723.6L2035.07 14506.3L2035.09 14505.6V14506.3L2034.1 14677.7L2094.19 14609.7L2033.86 14692.4L2032.27 14786.3L2088.37 14696.2L2032.03 14800.1L2031.14 14852.3L2112.59 14726.9L2030.84 14870.5L2028.88 14986.5Z" fill="#3F3D56"/>
<path d="M1917.95 14798.9C1925.65 14783.3 1889.98 14751.6 1838.29 14728.1C1786.59 14704.5 1738.45 14698.1 1730.75 14713.7C1723.05 14729.3 1758.72 14761 1810.41 14784.5C1862.11 14808 1910.25 14814.5 1917.95 14798.9Z" fill="#2F2E41"/>
<path d="M323.3 14780.7C329.983 14764.7 292.348 14735.2 239.241 14714.7C186.134 14694.3 137.665 14690.7 130.982 14706.7C124.3 14722.7 161.935 14752.2 215.042 14772.7C268.149 14793.1 316.618 14796.7 323.3 14780.7Z" fill="#2F2E41"/>
</g>
<path d="M3161.26 14739.2C3137.43 14739.2 3113.87 14743.7 3092.07 14752.3C3033.1 14668.1 2941.81 14614 2839.25 14614C2736.69 14614 2645.4 14668.1 2586.43 14752.3C2564.63 14743.7 2541.07 14739.2 2517.24 14739.2C2400.73 14739.2 2306.27 14845.6 2306.27 14977H3372.23C3372.23 14845.6 3277.78 14739.2 3161.26 14739.2Z" fill="#D0CDE1"/>
<path d="M9770.22 14576.4C9745.09 14576.9 9720.82 14584.7 9701.03 14598.6C9642.06 14456.8 9550.78 14365.6 9448.22 14365.6C9345.66 14365.6 9254.37 14456.8 9195.4 14598.6C9175.61 14584.7 9151.34 14576.9 9126.21 14576.4C9009.69 14576.4 8915.23 14755.8 8915.23 14977H9981.2C9981.2 14755.8 9886.74 14576.4 9770.22 14576.4Z" fill="#D0CDE1"/>
<path d="M18958.8 14576.4C18933.7 14576.9 18909.4 14584.7 18889.6 14598.6C18830.7 14456.8 18739.4 14365.6 18636.8 14365.6C18534.3 14365.6 18443 14456.8 18384 14598.6C18364.2 14584.7 18339.9 14576.9 18314.8 14576.4C18198.3 14576.4 18103.8 14755.8 18103.8 14977H19169.8C19169.8 14755.8 19075.4 14576.4 18958.8 14576.4Z" fill="#6C63FF"/>
<path d="M13247 10951.1L13213.1 11095.2L13170.8 11239.4L13035.3 12954L13501 12984.3L13712.6 11110.4L13678.7 11011.8L13247 10951.1Z" fill="#2F2E41"/>
<path d="M12849.1 12718.8L12654.4 12984.3C12654.4 12984.3 12112.5 13378.8 12502 13401.6C12891.4 13424.4 13035.3 13166.4 13035.3 13166.4C13035.3 13166.4 13170.8 13128.5 13187.7 13090.5C13204.7 13052.6 13153.9 12718.8 13153.9 12718.8H12849.1Z" fill="#2F2E41"/>
<path d="M13069.2 12923.6C13069.2 12923.6 12874.5 13363.7 12899.9 13439.5C12925.3 13515.4 12967.6 13515.4 12959.1 13583.7C12950.7 13652 12925.3 13811.3 13247 13818.9C13568.7 13826.5 13416.3 13439.5 13416.3 13439.5L13374 12923.6H13069.2Z" fill="#2F2E41"/>
<path d="M12476.6 9668.89C12476.6 9668.89 12358.1 9850.97 12375 9964.78C12391.9 10078.6 12637.4 11300.1 12637.4 11300.1L12832.2 12787.1L13263.9 12756.7L13094.6 11383.5L13136.9 10291L13213.1 11095.2L13712.6 11110.4L14008.9 9964.78C14008.9 9964.78 13788.8 9646.13 13746.5 9623.37C13704.2 9600.61 12476.6 9668.89 12476.6 9668.89Z" fill="#2F2E41"/>
<path d="M13065 7366.29C13266 7366.29 13429 7220.23 13429 7040.06C13429 6859.88 13266 6713.82 13065 6713.82C12863.9 6713.82 12700.9 6859.88 12700.9 7040.06C12700.9 7220.23 12863.9 7366.29 13065 7366.29Z" fill="#FFB8B8"/>
<path d="M12959.2 7248.69L13009.9 7681.13L13568.7 7605.27L13263.9 7096.95L12959.2 7248.69Z" fill="#FFB8B8"/>
<path d="M13526.4 7476.3C13526.4 7476.3 13238.5 7665.97 12959.1 7559.76L12535.8 8523.28V9729.59C12535.8 9729.59 13170.8 9896.5 13526.4 9699.24C13526.4 9699.24 13780.3 9653.72 13822.7 9661.3C13865 9668.89 13670.3 7605.28 13670.3 7605.28L13526.4 7476.3Z" fill="#D0CDE1"/>
<path d="M13263.9 7521.82L13458.6 7772.19C13496.5 7834.76 13508.5 7907.31 13492.5 7977.03C13467.1 8098.42 13441.7 9684.06 13678.7 9744.76C13915.8 9805.45 14068.2 9797.87 14068.2 9797.87C14068.2 9797.87 13856.5 8887.45 13932.7 8728.12L14169.8 7772.18L13543.3 7453.54C13543.3 7453.54 13504.1 7309.39 13439 7389.05C13390.7 7442.96 13331.2 7488.04 13263.9 7521.82Z" fill="#575A89"/>
<path d="M12696.7 8932.97L12985.9 7476.3L12696.7 7612.86C12696.7 7612.86 12366.5 7734.25 12298.8 7878.4C12231.1 8022.55 11960.2 8712.95 11960.2 8712.95C11960.2 8712.95 12027.9 9130.23 12281.9 8955.73C12535.8 8781.23 12476.6 8697.78 12476.6 8697.78C12476.6 8697.78 12256.5 9501.98 12290.3 9524.74C12324.2 9547.5 12341.1 9759.93 12341.1 9759.93L12603.6 9714.41L12696.7 8932.97Z" fill="#575A89"/>
<path d="M12366.5 8121.18L12476.6 7977.03C12476.6 7977.03 12725.5 7529.41 12905.8 7681.14C13086.1 7832.88 12569.7 8181.87 12569.7 8181.87L12366.5 8121.18Z" fill="#FFB8B8"/>
<path d="M13856.5 9691.66L13788.8 9769.53L13958.1 9964.77L14034.3 9828.2L13856.5 9691.66Z" fill="#FFB8B8"/>
<path d="M12919 6769.82C12881.7 6770.15 12849 6790.88 12818.3 6809.94C12787.6 6828.99 12752.9 6848.01 12715.8 6844.25C12698.5 6841.48 12682.1 6835.04 12668.2 6825.47C12654.2 6815.9 12642.9 6803.48 12635.4 6789.24C12620.6 6760.65 12611.1 6730.12 12607.2 6698.81L12649.4 6712.15L12615.2 6677.31L12978.9 6578.29C13088.9 6548.34 13213.2 6519.47 13314 6569.07C13366.1 6597.85 13408.3 6639.03 13435.8 6688.02C13493.1 6781.89 13522.3 6887.45 13520.7 6994.44C13519 7101.44 13486.4 7206.21 13426.1 7298.59C13370.4 7294.34 13334 7241.99 13325 7192.48C13315.9 7142.98 13324.7 7091.7 13313.6 7042.55C13302.4 6993.4 13260.6 6943.05 13204.6 6944.59L13175.1 7000.88C13194 6964.86 13082 6876.89 13055.3 6860.54C13031.9 6848.55 13010 6834.27 12990.1 6817.94C12967 6796.28 12961.2 6769.44 12919 6769.82Z" fill="#2F2E41"/>
<path d="M12400.4 8037.72L12603.6 8151.53L12400.4 8910.21C12400.4 8910.21 12078.7 9266.79 11960.2 8910.21C11860.9 8611.73 12236.3 8201.63 12361.2 8075.9C12385.6 8051.42 12400.4 8037.72 12400.4 8037.72Z" fill="#575A89"/>
<path d="M13975.1 7757.01H14169.8C14169.8 7757.01 14339.1 8052.9 14356 8212.22C14373 8371.54 14373 9001.25 14373 9001.25L14042.8 9881.32L13788.8 9714.41L14000.5 9190.92C14000.5 9190.92 13975.1 9077.12 14000.5 9024.01C14025.9 8970.9 13924.3 8697.78 13907.3 8682.6C13890.4 8667.43 13975.1 7757.01 13975.1 7757.01Z" fill="#575A89"/>
<path d="M9374.92 4230.04H11665.8V4047.11L9374.92 4047.11V4230.04Z" fill="#3F3D56"/>
<path d="M9374.92 4903.96H11665.8V4721.02H9374.92V4903.96Z" fill="#3F3D56"/>
<path d="M9374.92 5507.68H11665.8V5324.74H9374.92V5507.68Z" fill="#3F3D56"/>
<path d="M5655.7 5900.89L6779.35 4874.88H8049.59V4836.67H6761.55L6755.28 4842.34L5625.36 5874.02L5655.7 5900.89Z" fill="#3F3D56"/>
<path d="M8654.24 4419.37C8792.68 4419.37 8904.91 4318.8 8904.91 4194.73C8904.91 4070.67 8792.68 3970.1 8654.24 3970.1C8515.8 3970.1 8403.57 4070.67 8403.57 4194.73C8403.57 4318.8 8515.8 4419.37 8654.24 4419.37Z" fill="#6C63FF"/>
<path d="M8654.24 5093.29C8792.68 5093.29 8904.91 4992.71 8904.91 4868.65C8904.91 4744.59 8792.68 4644.01 8654.24 4644.01C8515.8 4644.01 8403.57 4744.59 8403.57 4868.65C8403.57 4992.71 8515.8 5093.29 8654.24 5093.29Z" fill="#6C63FF"/>
<path d="M8654.24 5697C8792.68 5697 8904.91 5596.43 8904.91 5472.37C8904.91 5348.3 8792.68 5247.73 8654.24 5247.73C8515.8 5247.73 8403.57 5348.3 8403.57 5472.37C8403.57 5596.43 8515.8 5697 8654.24 5697Z" fill="#6C63FF"/>
<path d="M8513.25 4138.57C8513.25 4091.37 8528.87 4045.22 8558.14 4005.97C8587.4 3966.72 8629 3936.13 8677.67 3918.06C8726.33 3900 8779.88 3895.27 8831.55 3904.48C8883.21 3913.69 8930.67 3936.42 8967.92 3969.8C9005.17 4003.18 9030.53 4045.71 9040.81 4092.01C9051.09 4138.31 9045.81 4186.3 9025.65 4229.91C9005.5 4273.53 8971.36 4310.8 8927.56 4337.03C8883.76 4363.25 8832.27 4377.25 8779.59 4377.25C8708.98 4377.18 8641.28 4352.01 8591.35 4307.27C8541.41 4262.52 8513.33 4201.85 8513.25 4138.57ZM8544.58 4138.57C8544.58 4180.23 8558.37 4220.94 8584.19 4255.58C8610.01 4290.21 8646.71 4317.2 8689.66 4333.14C8732.6 4349.08 8779.85 4353.25 8825.44 4345.13C8871.02 4337 8912.9 4316.94 8945.76 4287.49C8978.63 4258.04 9001.01 4220.51 9010.08 4179.66C9019.15 4138.81 9014.49 4096.46 8996.7 4057.98C8978.92 4019.5 8948.8 3986.61 8910.15 3963.47C8871.5 3940.33 8826.07 3927.97 8779.59 3927.97C8717.28 3928.04 8657.55 3950.25 8613.49 3989.73C8569.44 4029.21 8544.65 4082.74 8544.58 4138.57Z" fill="#3F3D56"/>
<path d="M8513.25 4812.49C8513.25 4765.28 8528.87 4719.14 8558.14 4679.89C8587.4 4640.64 8629 4610.04 8677.67 4591.98C8726.33 4573.91 8779.88 4569.19 8831.55 4578.4C8883.21 4587.61 8930.67 4610.34 8967.92 4643.72C9005.17 4677.1 9030.53 4719.63 9040.81 4765.93C9051.09 4812.23 9045.81 4860.22 9025.65 4903.83C9005.5 4947.44 8971.36 4984.72 8927.56 5010.94C8883.76 5037.17 8832.27 5051.17 8779.59 5051.17C8708.98 5051.1 8641.28 5025.93 8591.35 4981.18C8541.41 4936.44 8513.33 4875.77 8513.25 4812.49ZM8544.58 4812.49C8544.58 4854.14 8558.37 4894.86 8584.19 4929.49C8610.01 4964.13 8646.71 4991.12 8689.66 5007.06C8732.6 5023 8779.85 5027.17 8825.44 5019.04C8871.02 5010.92 8912.9 4990.86 8945.76 4961.41C8978.63 4931.95 9001.01 4894.43 9010.08 4853.58C9019.15 4812.72 9014.49 4770.38 8996.7 4731.9C8978.92 4693.42 8948.8 4660.52 8910.15 4637.38C8871.5 4614.24 8826.07 4601.89 8779.59 4601.89C8717.28 4601.95 8657.55 4624.16 8613.49 4663.64C8569.44 4703.13 8544.65 4756.66 8544.58 4812.49Z" fill="#3F3D56"/>
<path d="M8513.25 5416.21C8513.25 5369 8528.87 5322.85 8558.14 5283.6C8587.4 5244.35 8629 5213.76 8677.67 5195.7C8726.33 5177.63 8779.88 5172.9 8831.55 5182.11C8883.21 5191.32 8930.67 5214.06 8967.92 5247.44C9005.17 5280.82 9030.53 5323.34 9040.81 5369.64C9051.09 5415.94 9045.81 5463.93 9025.65 5507.54C9005.5 5551.16 8971.36 5588.43 8927.56 5614.66C8883.76 5640.89 8832.27 5654.88 8779.59 5654.88C8708.98 5654.81 8641.28 5629.64 8591.35 5584.9C8541.41 5540.15 8513.33 5479.49 8513.25 5416.21ZM8544.58 5416.21C8544.58 5457.86 8558.37 5498.58 8584.19 5533.21C8610.01 5567.84 8646.71 5594.83 8689.66 5610.77C8732.6 5626.71 8779.85 5630.88 8825.44 5622.76C8871.02 5614.63 8912.9 5594.58 8945.76 5565.12C8978.63 5535.67 9001.01 5498.14 9010.08 5457.29C9019.15 5416.44 9014.49 5374.1 8996.7 5335.61C8978.92 5297.13 8948.8 5264.24 8910.15 5241.1C8871.5 5217.96 8826.07 5205.61 8779.59 5205.61C8717.28 5205.67 8657.55 5227.88 8613.49 5267.36C8569.44 5306.84 8544.65 5360.37 8544.58 5416.21Z" fill="#3F3D56"/>
<path d="M13724 1888.21H11433.2V2071.15H13724V1888.21Z" fill="#3F3D56"/>
<path d="M13724 2562.12H11433.2V2745.06H13724V2562.12Z" fill="#3F3D56"/>
<path d="M13724 3165.84H11433.2V3348.78H13724V3165.84Z" fill="#3F3D56"/>
<path d="M17230.1 3933.04L16319.6 2715.98H15049.4V2677.77H16337.4L16343.7 2683.44L17260.4 3906.18L17230.1 3933.04Z" fill="#3F3D56"/>
<path d="M14444.7 2260.48C14583.2 2260.48 14695.4 2159.9 14695.4 2035.84C14695.4 1911.77 14583.2 1811.2 14444.7 1811.2C14306.3 1811.2 14194.1 1911.77 14194.1 2035.84C14194.1 2159.9 14306.3 2260.48 14444.7 2260.48Z" fill="#6C63FF"/>
<path d="M14444.7 2934.39C14583.2 2934.39 14695.4 2833.82 14695.4 2709.75C14695.4 2585.69 14583.2 2485.12 14444.7 2485.12C14306.3 2485.12 14194.1 2585.69 14194.1 2709.75C14194.1 2833.82 14306.3 2934.39 14444.7 2934.39Z" fill="#6C63FF"/>
<path d="M14444.7 3538.11C14583.2 3538.11 14695.4 3437.54 14695.4 3313.47C14695.4 3189.41 14583.2 3088.83 14444.7 3088.83C14306.3 3088.83 14194.1 3189.41 14194.1 3313.47C14194.1 3437.54 14306.3 3538.11 14444.7 3538.11Z" fill="#6C63FF"/>
<path d="M14319.4 2218.36C14266.7 2218.36 14215.2 2204.36 14171.4 2178.13C14127.6 2151.91 14093.5 2114.63 14073.3 2071.02C14053.2 2027.4 14047.9 1979.41 14058.2 1933.11C14068.5 1886.82 14093.8 1844.29 14131.1 1810.91C14168.3 1777.53 14215.8 1754.8 14267.4 1745.59C14319.1 1736.38 14372.7 1741.1 14421.3 1759.17C14470 1777.23 14511.6 1807.83 14540.8 1847.08C14570.1 1886.33 14585.7 1932.47 14585.7 1979.68C14585.7 2042.96 14557.6 2103.63 14507.6 2148.37C14457.7 2193.12 14390 2218.29 14319.4 2218.36ZM14319.4 1769.08C14272.9 1769.08 14227.5 1781.43 14188.8 1804.57C14150.2 1827.71 14120.1 1860.6 14102.3 1899.09C14084.5 1937.57 14079.8 1979.91 14088.9 2020.76C14098 2061.62 14120.4 2099.14 14153.2 2128.59C14186.1 2158.05 14228 2178.1 14273.6 2186.23C14319.1 2194.36 14366.4 2190.19 14409.3 2174.25C14452.3 2158.31 14489 2131.31 14514.8 2096.68C14540.6 2062.05 14554.4 2021.33 14554.4 1979.68C14554.3 1923.84 14529.5 1870.31 14485.5 1830.83C14441.4 1791.35 14381.7 1769.14 14319.4 1769.08Z" fill="#3F3D56"/>
<path d="M14319.4 2892.27C14266.7 2892.27 14215.2 2878.27 14171.4 2852.05C14127.6 2825.82 14093.5 2788.54 14073.3 2744.93C14053.2 2701.32 14047.9 2653.33 14058.2 2607.03C14068.5 2560.73 14093.8 2518.2 14131.1 2484.82C14168.3 2451.44 14215.8 2428.71 14267.4 2419.5C14319.1 2410.29 14372.7 2415.02 14421.3 2433.08C14470 2451.15 14511.6 2481.74 14540.8 2520.99C14570.1 2560.24 14585.7 2606.39 14585.7 2653.59C14585.7 2716.87 14557.6 2777.54 14507.6 2822.29C14457.7 2867.03 14390 2892.2 14319.4 2892.27ZM14319.4 2443C14272.9 2443 14227.5 2455.35 14188.8 2478.49C14150.2 2501.63 14120.1 2534.52 14102.3 2573C14084.5 2611.48 14079.8 2653.83 14088.9 2694.68C14098 2735.53 14120.4 2773.06 14153.2 2802.51C14186.1 2831.96 14228 2852.02 14273.6 2860.15C14319.1 2868.27 14366.4 2864.1 14409.3 2848.16C14452.3 2832.22 14489 2805.23 14514.8 2770.6C14540.6 2735.96 14554.4 2695.25 14554.4 2653.59C14554.3 2597.76 14529.5 2544.23 14485.5 2504.75C14441.4 2465.27 14381.7 2443.06 14319.4 2443Z" fill="#3F3D56"/>
<path d="M14319.4 3495.99C14266.7 3495.99 14215.2 3481.99 14171.4 3455.77C14127.6 3429.54 14093.5 3392.26 14073.3 3348.65C14053.2 3305.04 14047.9 3257.05 14058.2 3210.75C14068.5 3164.45 14093.8 3121.92 14131.1 3088.54C14168.3 3055.16 14215.8 3032.43 14267.4 3023.22C14319.1 3014.01 14372.7 3018.74 14421.3 3036.8C14470 3054.87 14511.6 3085.46 14540.8 3124.71C14570.1 3163.96 14585.7 3210.11 14585.7 3257.31C14585.7 3320.59 14557.6 3381.26 14507.6 3426C14457.7 3470.75 14390 3495.92 14319.4 3495.99ZM14319.4 3046.71C14272.9 3046.71 14227.5 3059.06 14188.8 3082.21C14150.2 3105.35 14120.1 3138.24 14102.3 3176.72C14084.5 3215.2 14079.8 3257.55 14088.9 3298.4C14098 3339.25 14120.4 3376.77 14153.2 3406.23C14186.1 3435.68 14228 3455.74 14273.6 3463.86C14319.1 3471.99 14366.4 3467.82 14409.3 3451.88C14452.3 3435.94 14489 3408.95 14514.8 3374.31C14540.6 3339.68 14554.4 3298.96 14554.4 3257.31C14554.3 3201.48 14529.5 3147.95 14485.5 3108.47C14441.4 3068.98 14381.7 3046.78 14319.4 3046.71Z" fill="#3F3D56"/>
<path d="M9687.94 9074.79H11287.9V8947.02H9687.94V9074.79Z" fill="#3F3D56"/>
<path d="M9687.94 9545.46H11287.9V9417.7H9687.94V9545.46Z" fill="#3F3D56"/>
<path d="M9687.94 9967.11H11287.9V9839.34H9687.94V9967.11Z" fill="#3F3D56"/>
<path d="M7090.37 10241.7L7875.15 9525.16H8762.33V9498.47H7862.73L7858.35 9502.42L7069.2 10223L7090.37 10241.7Z" fill="#3F3D56"/>
<path d="M9184.62 9207.02C9281.31 9207.02 9359.7 9136.78 9359.7 9050.13C9359.7 8963.48 9281.31 8893.24 9184.62 8893.24C9087.93 8893.24 9009.55 8963.48 9009.55 9050.13C9009.55 9136.78 9087.93 9207.02 9184.62 9207.02Z" fill="#6C63FF"/>
<path d="M9184.62 9677.69C9281.31 9677.69 9359.7 9607.45 9359.7 9520.8C9359.7 9434.15 9281.31 9363.91 9184.62 9363.91C9087.93 9363.91 9009.55 9434.15 9009.55 9520.8C9009.55 9607.45 9087.93 9677.69 9184.62 9677.69Z" fill="#6C63FF"/>
<path d="M9184.62 10099.3C9281.31 10099.3 9359.7 10029.1 9359.7 9942.45C9359.7 9855.8 9281.31 9785.56 9184.62 9785.56C9087.93 9785.56 9009.55 9855.8 9009.55 9942.45C9009.55 10029.1 9087.93 10099.3 9184.62 10099.3Z" fill="#6C63FF"/>
<path d="M9086.13 9010.91C9086.13 8977.94 9097.04 8945.71 9117.48 8918.29C9137.92 8890.88 9166.97 8869.51 9200.96 8856.9C9234.95 8844.28 9272.35 8840.98 9308.43 8847.41C9344.52 8853.84 9377.66 8869.72 9403.67 8893.03C9429.69 8916.34 9447.41 8946.05 9454.58 8978.38C9461.76 9010.72 9458.08 9044.24 9444 9074.7C9429.92 9105.16 9406.08 9131.19 9375.49 9149.51C9344.9 9167.83 9308.93 9177.6 9272.14 9177.6C9222.82 9177.55 9175.54 9159.97 9140.67 9128.72C9105.8 9097.47 9086.18 9055.1 9086.13 9010.91ZM9108.01 9010.91C9108.01 9040 9117.64 9068.43 9135.67 9092.62C9153.71 9116.81 9179.34 9135.66 9209.33 9146.79C9239.32 9157.93 9272.32 9160.84 9304.16 9155.17C9336 9149.49 9365.25 9135.48 9388.2 9114.91C9411.15 9094.34 9426.79 9068.13 9433.12 9039.6C9439.45 9011.07 9436.2 8981.49 9423.78 8954.62C9411.36 8927.74 9390.32 8904.77 9363.33 8888.61C9336.34 8872.45 9304.6 8863.82 9272.14 8863.82C9228.63 8863.86 9186.91 8879.37 9156.14 8906.95C9125.37 8934.52 9108.06 8971.91 9108.01 9010.91Z" fill="#3F3D56"/>
<path d="M9086.13 9481.58C9086.13 9448.61 9097.04 9416.38 9117.48 9388.97C9137.92 9361.55 9166.97 9340.19 9200.96 9327.57C9234.95 9314.95 9272.35 9311.65 9308.43 9318.08C9344.52 9324.52 9377.66 9340.39 9403.67 9363.71C9429.69 9387.02 9447.41 9416.72 9454.58 9449.06C9461.76 9481.39 9458.08 9514.91 9444 9545.37C9429.92 9575.83 9406.08 9601.87 9375.49 9620.18C9344.9 9638.5 9308.93 9648.28 9272.14 9648.28C9222.82 9648.23 9175.54 9630.65 9140.67 9599.4C9105.8 9568.15 9086.18 9525.78 9086.13 9481.58ZM9108.01 9481.58C9108.01 9510.67 9117.64 9539.11 9135.67 9563.3C9153.71 9587.48 9179.34 9606.34 9209.33 9617.47C9239.32 9628.6 9272.32 9631.52 9304.16 9625.84C9336 9620.16 9365.25 9606.16 9388.2 9585.59C9411.15 9565.02 9426.79 9538.81 9433.12 9510.27C9439.45 9481.74 9436.2 9452.17 9423.78 9425.29C9411.36 9398.42 9390.32 9375.44 9363.33 9359.28C9336.34 9343.12 9304.6 9334.49 9272.14 9334.49C9228.63 9334.54 9186.91 9350.05 9156.14 9377.62C9125.37 9405.2 9108.06 9442.58 9108.01 9481.58Z" fill="#3F3D56"/>
<path d="M9086.13 9903.23C9086.13 9870.26 9097.04 9838.03 9117.48 9810.61C9137.92 9783.2 9166.97 9761.84 9200.96 9749.22C9234.95 9736.6 9272.35 9733.3 9308.43 9739.73C9344.52 9746.16 9377.66 9762.04 9403.67 9785.35C9429.69 9808.67 9447.41 9838.37 9454.58 9870.71C9461.76 9903.04 9458.08 9936.56 9444 9967.02C9429.92 9997.48 9406.08 10023.5 9375.49 10041.8C9344.9 10060.1 9308.93 10069.9 9272.14 10069.9C9222.82 10069.9 9175.54 10052.3 9140.67 10021C9105.8 9989.79 9086.18 9947.42 9086.13 9903.23ZM9108.01 9903.23C9108.01 9932.32 9117.64 9960.76 9135.67 9984.94C9153.71 10009.1 9179.34 10028 9209.33 10039.1C9239.32 10050.2 9272.32 10053.2 9304.16 10047.5C9336 10041.8 9365.25 10027.8 9388.2 10007.2C9411.15 9986.66 9426.79 9960.45 9433.12 9931.92C9439.45 9903.39 9436.2 9873.82 9423.78 9846.94C9411.36 9820.06 9390.32 9797.09 9363.33 9780.93C9336.34 9764.77 9304.6 9756.14 9272.14 9756.14C9228.63 9756.18 9186.91 9771.7 9156.14 9799.27C9125.37 9826.85 9108.06 9864.23 9108.01 9903.23Z" fill="#3F3D56"/>
<g clip-path="url(#clip2)">
<path d="M17237.6 13324.4C17330.3 13324.4 17405.4 13252.3 17405.4 13163.3C17405.4 13074.3 17330.3 13002.2 17237.6 13002.2C17144.9 13002.2 17069.7 13074.3 17069.7 13163.3C17069.7 13252.3 17144.9 13324.4 17237.6 13324.4Z" fill="#FF6584"/>
<path d="M18054.2 13767.9C18054.2 14148.1 17818.8 14280.8 17528.3 14280.8C17237.9 14280.8 17002.4 14148.1 17002.4 13767.9C17002.4 13387.7 17528.3 12904 17528.3 12904C17528.3 12904 18054.2 13387.7 18054.2 13767.9Z" fill="#F2F2F2"/>
<path d="M17509.2 14222.7L17514.6 13904.5L17738.7 13510.8L17515.4 13854.5L17517.8 13711.5L17672.3 13426.7L17518.5 13673.6L17522.8 13416.3L17688.2 13189.6L17523.5 13375.8L17526.2 12904L17509.1 13528.6L17510.5 13502.9L17342.3 13255.7L17507.8 13552.3L17492.2 13839.7L17491.7 13832.1L17297.8 13572L17491.1 13859L17489.2 13895L17488.8 13895.5L17489 13898.5L17449.2 14627.6H17502.3L17508.7 14251L17701.5 13964.7L17509.2 14222.7Z" fill="#3F3D56"/>
<path d="M19619 13923.6C19619 14234.8 19426.2 14343.5 19188.5 14343.5C18950.7 14343.5 18758 14234.8 18758 13923.6C18758 13612.4 19188.5 13216.5 19188.5 13216.5C19188.5 13216.5 19619 13612.4 19619 13923.6Z" fill="#F2F2F2"/>
<path d="M19172.8 14295.8L19177.2 14035.4L19360.7 13713.2L19177.9 13994.5L19179.9 13877.4L19306.3 13644.3L19180.4 13846.4L19184 13635.8L19319.4 13450.2L19184.5 13602.7L19186.8 13216.5L19172.8 13727.7L19173.9 13706.7L19036.2 13504.4L19171.7 13747.1L19158.9 13982.4L19158.5 13976.1L18999.8 13763.3L19158 13998.2L19156.4 14027.6L19156.1 14028.1L19156.3 14030.5L19123.7 14627.3H19167.2L19172.4 14319L19330.2 14084.7L19172.8 14295.8Z" fill="#3F3D56"/>
<path d="M18134.5 14687.8C18937.8 14687.8 19589 14656.2 19589 14617.2C19589 14578.2 18937.8 14546.6 18134.5 14546.6C17331.2 14546.6 16680 14578.2 16680 14617.2C16680 14656.2 17331.2 14687.8 18134.5 14687.8Z" fill="#3F3D56"/>
<path d="M19020.6 14745.9C19158.2 14745.9 19269.7 14740.5 19269.7 14733.8C19269.7 14727.2 19158.2 14721.7 19020.6 14721.7C18883 14721.7 18771.5 14727.2 18771.5 14733.8C18771.5 14740.5 18883 14745.9 19020.6 14745.9Z" fill="#3F3D56"/>
<path d="M18119.1 14862.5C18256.7 14862.5 18368.2 14857.1 18368.2 14850.4C18368.2 14843.8 18256.7 14838.4 18119.1 14838.4C17981.5 14838.4 17870 14843.8 17870 14850.4C17870 14857.1 17981.5 14862.5 18119.1 14862.5Z" fill="#3F3D56"/>
<path d="M17435.2 14780.3C17749.5 14780.3 18004.3 14767.9 18004.3 14752.7C18004.3 14737.4 17749.5 14725 17435.2 14725C17120.8 14725 16866 14737.4 16866 14752.7C16866 14767.9 17120.8 14780.3 17435.2 14780.3Z" fill="#3F3D56"/>
<path d="M16934.6 14528.6C17049 14528.6 17141.8 14439.5 17141.8 14329.7C17141.8 14219.8 17049 14130.8 16934.6 14130.8C16820.2 14130.8 16727.4 14219.8 16727.4 14329.7C16727.4 14439.5 16820.2 14528.6 16934.6 14528.6Z" fill="#2F2E41"/>
<path d="M16901.2 14485.4L16838.3 14484.7L16837 14592.9L16899.9 14593.7L16901.2 14485.4Z" fill="#2F2E41"/>
<path d="M17027.1 14486.8L16964.2 14486.1L16962.8 14594.4L17025.8 14595.1L17027.1 14486.8Z" fill="#2F2E41"/>
<path d="M16941.8 14595.4C16942 14585 16918.6 14576.2 16889.6 14575.9C16860.7 14575.6 16837.1 14583.8 16836.9 14594.2C16836.8 14604.6 16860.2 14613.3 16889.2 14613.7C16918.1 14614 16941.7 14605.8 16941.8 14595.4Z" fill="#2F2E41"/>
<path d="M17067.8 14594.3C17067.9 14583.9 17044.5 14575.1 17015.5 14574.8C16986.6 14574.5 16963 14582.7 16962.9 14593.1C16962.7 14603.5 16986.1 14612.3 17015.1 14612.6C17044 14612.9 17067.6 14604.7 17067.8 14594.3Z" fill="#2F2E41"/>
<path d="M16940.5 14347.4C16979.6 14347.4 17011.3 14316.9 17011.3 14279.4C17011.3 14241.8 16979.6 14211.4 16940.5 14211.4C16901.4 14211.4 16869.7 14241.8 16869.7 14279.4C16869.7 14316.9 16901.4 14347.4 16940.5 14347.4Z" fill="white"/>
<path d="M16940.5 14302C16953.5 14302 16964.1 14291.9 16964.1 14279.4C16964.1 14266.9 16953.5 14256.7 16940.5 14256.7C16927.4 14256.7 16916.9 14266.9 16916.9 14279.4C16916.9 14291.9 16927.4 14302 16940.5 14302Z" fill="#3F3D56"/>
<path d="M16735.9 14142.4C16720.1 14070.3 16774.4 13998.3 16857.4 13981.5C16940.3 13964.7 17020.3 14009.5 17036.2 14081.6C17052 14153.8 16996.9 14179.7 16914 14196.4C16831.1 14213.2 16751.8 14214.6 16735.9 14142.4Z" fill="#6C63FF"/>
<path d="M17250.7 14440.6C17250.7 14579.3 17164.8 14627.7 17058.9 14627.7C17056.4 14627.7 17054 14627.7 17051.5 14627.6C17046.6 14627.5 17041.8 14627.3 17037 14627C16941.4 14620.5 16867.1 14569.6 16867.1 14440.6C16867.1 14307.2 17044.7 14138.8 17058.1 14126.3L17058.1 14126.3C17058.6 14125.8 17058.9 14125.6 17058.9 14125.6C17058.9 14125.6 17250.7 14302 17250.7 14440.6Z" fill="#6C63FF"/>
<path d="M17051.9 14606.5L17122 14512.4L17051.7 14616.8L17051.5 14627.6C17046.6 14627.5 17041.8 14627.3 17037 14627L17044.5 14488.3L17044.5 14487.2L17044.6 14487L17045.3 14473.9L16974.8 14369.2L17045.5 14464.1L17045.7 14466.8L17051.4 14362L16991 14253.8L17052.1 14343.6L17058.1 14126.3L17058.1 14125.6V14126.3L17057.1 14297.7L17117.2 14229.7L17056.9 14312.4L17055.3 14406.3L17111.4 14316.2L17055 14420.1L17054.2 14472.2L17135.6 14346.9L17053.9 14490.5L17051.9 14606.5Z" fill="#3F3D56"/>
<path d="M18548.6 14526.4C18663 14526.4 18755.8 14437.4 18755.8 14327.5C18755.8 14217.7 18663 14128.6 18548.6 14128.6C18434.2 14128.6 18341.4 14217.7 18341.4 14327.5C18341.4 14437.4 18434.2 14526.4 18548.6 14526.4Z" fill="#2F2E41"/>
<path d="M18566.3 14485.6L18506.1 14503.4L18539.3 14606.8L18599.4 14589.1L18566.3 14485.6Z" fill="#2F2E41"/>
<path d="M18686.6 14450.1L18626.5 14467.9L18659.6 14571.4L18719.8 14553.6L18686.6 14450.1Z" fill="#2F2E41"/>
<path d="M18595.6 14611.3C18623.3 14603.1 18643.1 14588.4 18639.9 14578.5C18636.7 14568.5 18611.7 14567 18584 14575.2C18556.3 14583.4 18536.5 14598.1 18539.6 14608C18542.8 14618 18567.9 14619.5 18595.6 14611.3Z" fill="#2F2E41"/>
<path d="M18715.1 14573.4C18742.8 14565.2 18762.7 14550.5 18759.5 14540.6C18756.3 14530.6 18731.3 14529.1 18703.6 14537.3C18675.9 14545.5 18656 14560.2 18659.2 14570.1C18662.4 14580.1 18687.4 14581.6 18715.1 14573.4Z" fill="#2F2E41"/>
<path d="M18538.2 14345.9C18577.3 14345.9 18609 14315.5 18609 14277.9C18609 14240.4 18577.3 14209.9 18538.2 14209.9C18499.1 14209.9 18467.4 14240.4 18467.4 14277.9C18467.4 14315.5 18499.1 14345.9 18538.2 14345.9Z" fill="white"/>
<path d="M18538.2 14300.6C18551.3 14300.6 18561.8 14290.4 18561.8 14277.9C18561.8 14265.4 18551.3 14255.3 18538.2 14255.3C18525.2 14255.3 18514.6 14265.4 18514.6 14277.9C18514.6 14290.4 18525.2 14300.6 18538.2 14300.6Z" fill="#3F3D56"/>
<path d="M18299.9 14207.4C18261.9 14143.4 18290.8 14058.8 18364.4 14018.5C18438 13978.3 18528.5 13997.6 18566.5 14061.6C18604.5 14125.6 18560.2 14166.4 18486.6 14206.7C18413 14247 18337.9 14271.4 18299.9 14207.4Z" fill="#6C63FF"/>
<path d="M18179.1 14415.2C18179.1 14542.5 18100.3 14587 18003 14587C18000.8 14587 17998.5 14586.9 17996.3 14586.9C17991.8 14586.8 17987.3 14586.6 17982.9 14586.3C17895.2 14580.4 17827 14533.6 17827 14415.2C17827 14292.7 17990.1 14138.2 18002.3 14126.7L18002.3 14126.7C18002.8 14126.2 18003 14126 18003 14126C18003 14126 18179.1 14288 18179.1 14415.2Z" fill="#6C63FF"/>
<path d="M17996.6 14567.5L18061 14481.1L17996.5 14577L17996.3 14586.9C17991.8 14586.8 17987.3 14586.6 17982.9 14586.3L17989.9 14459L17989.8 14458L17989.9 14457.8L17990.6 14445.8L17925.9 14349.7L17990.8 14436.7L17990.9 14439.3L17996.2 14343.1L17940.8 14243.8L17996.9 14326.2L18002.3 14126.7L18002.3 14126V14126.7L18001.4 14284L18056.6 14221.6L18001.2 14297.5L17999.7 14383.7L18051.2 14301L17999.5 14396.4L17998.7 14444.3L18073.5 14329.2L17998.4 14461L17996.6 14567.5Z" fill="#3F3D56"/>
<path d="M18871.5 14468.3C18871.5 14607 18785.6 14655.4 18679.7 14655.4C18677.2 14655.4 18674.8 14655.4 18672.3 14655.3C18667.4 14655.2 18662.6 14655 18657.8 14654.7C18562.2 14648.2 18487.9 14597.3 18487.9 14468.3C18487.9 14334.9 18665.6 14166.5 18678.9 14154L18678.9 14154C18679.4 14153.5 18679.7 14153.3 18679.7 14153.3C18679.7 14153.3 18871.5 14329.7 18871.5 14468.3Z" fill="#6C63FF"/>
<path d="M18672.7 14634.2L18742.9 14540.1L18672.5 14644.5L18672.3 14655.3C18667.4 14655.2 18662.6 14655 18657.8 14654.7L18665.3 14516L18665.3 14514.9L18665.4 14514.7L18666.1 14501.6L18595.6 14396.9L18666.3 14491.8L18666.5 14494.5L18672.2 14389.7L18611.9 14281.5L18672.9 14371.3L18678.9 14154L18678.9 14153.3V14154L18677.9 14325.3L18738 14257.4L18677.7 14340.1L18676.1 14434L18732.2 14343.9L18675.9 14447.8L18675 14499.9L18756.4 14374.6L18674.7 14518.1L18672.7 14634.2Z" fill="#3F3D56"/>
<path d="M18561.8 14446.6C18569.5 14431 18533.8 14399.3 18482.1 14375.8C18430.4 14352.2 18382.3 14345.8 18374.6 14361.4C18366.9 14376.9 18402.5 14408.6 18454.2 14432.2C18505.9 14455.7 18554.1 14462.2 18561.8 14446.6Z" fill="#2F2E41"/>
<path d="M16967.1 14428.4C16973.8 14412.4 16936.2 14382.8 16883.1 14362.4C16830 14342 16781.5 14338.4 16774.8 14354.4C16768.1 14370.4 16805.8 14399.9 16858.9 14420.4C16912 14440.8 16960.4 14444.4 16967.1 14428.4Z" fill="#2F2E41"/>
</g>
<path d="M3053.81 12869.1L4082.42 11454L3055.91 13021.3L3058.06 13180.6C2982.97 13181.1 2908.6 13179.9 2834.97 13177.1L2885.99 11130.3L2884.59 11114.5L2886.47 11111.4L2891.35 10918L1764.9 9405.02L2890.03 10773.2L2894.02 10814.1L2932.55 9267.67L1959.6 7699.04L2935.32 8996L2925.14 5792.13L2925.16 5781.46L2925.49 5791.95L2990.08 8317.03L3876.8 7291.34L2992.98 8534.56L3012.33 9917.83L3828.3 8567.81L3015.33 10121.2L3026.11 10890.4L4212.75 9009.8L3029.71 11158.7L3053.81 12869.1Z" fill="#3F3D56"/>
<path d="M3558.37 12210.4L3544.67 12192.4L3547.06 12190.6L3558.85 12206.1L3579.56 12188.6L3600.43 12206.2L3618.47 12188.5L3637.48 12207.2L3635.36 12209.3L3618.47 12192.7L3600.59 12210.2L3579.56 12192.5L3558.37 12210.4Z" fill="#575A89"/>
<path d="M3555.41 12233.6L3541.83 12215.8L3543.92 12214.3L3555.83 12229.9L3576.57 12212.4L3597.45 12230L3615.47 12212.3L3634.35 12230.8L3632.51 12232.7L3615.47 12215.9L3597.59 12233.5L3576.57 12215.8L3555.41 12233.6Z" fill="#575A89"/>
<path d="M3590.03 12128.8H3587.04V12164.1H3590.03V12128.8Z" fill="#575A89"/>
<path d="M1993.66 9300.99C2020.11 9300.99 2041.55 9279.93 2041.55 9253.95C2041.55 9227.96 2020.11 9206.9 1993.66 9206.9C1967.22 9206.9 1945.78 9227.96 1945.78 9253.95C1945.78 9279.93 1967.22 9300.99 1993.66 9300.99Z" fill="#FF6584"/>
<path d="M2095.41 9481.54L2081.71 9463.56L2084.11 9461.79L2095.89 9477.26L2116.6 9459.82L2137.47 9477.4L2155.51 9459.68L2174.52 9478.36L2172.41 9480.44L2155.51 9463.84L2137.63 9481.4L2116.6 9463.69L2095.41 9481.54Z" fill="#575A89"/>
<path d="M4018.59 8286.63L4005.01 8268.82L4007.1 8267.28L4019.01 8282.91L4039.75 8265.44L4060.63 8283.03L4078.65 8265.32L4097.54 8283.87L4095.69 8285.68L4078.65 8268.94L4060.77 8286.52L4039.75 8268.82L4018.59 8286.63Z" fill="#575A89"/>
<path d="M4053.22 8181.86H4050.23V8217.14H4053.22V8181.86Z" fill="#575A89"/>
<path d="M18196.8 8581.47C18223.2 8581.47 18244.7 8560.41 18244.7 8534.43C18244.7 8508.44 18223.2 8487.38 18196.8 8487.38C18170.3 8487.38 18148.9 8508.44 18148.9 8534.43C18148.9 8560.41 18170.3 8581.47 18196.8 8581.47Z" fill="#FF6584"/>
<path d="M3653.46 8663.29L3639.75 8645.31L3642.15 8643.54L3653.94 8659.01L3674.65 8641.57L3695.51 8659.15L3713.55 8641.43L3732.56 8660.11L3730.45 8662.19L3713.55 8645.59L3695.67 8663.15L3674.65 8645.44L3653.46 8663.29Z" fill="#575A89"/>
<path d="M3653.46 8663.29L3639.75 8645.31L3642.15 8643.54L3653.94 8659.01L3674.65 8641.57L3695.51 8659.15L3713.55 8641.43L3732.56 8660.11L3730.45 8662.19L3713.55 8645.59L3695.67 8663.15L3674.65 8645.44L3653.46 8663.29Z" fill="#575A89"/>
<path d="M3097.53 12248.3L3083.95 12230.5L3086.04 12229L3097.95 12244.6L3118.69 12227.1L3139.57 12244.7L3157.59 12227L3176.47 12245.5L3174.63 12247.4L3157.59 12230.6L3139.71 12248.2L3118.69 12230.5L3097.53 12248.3Z" fill="#575A89"/>
<path d="M3132.15 12143.5H3129.16V12178.8H3132.15V12143.5Z" fill="#575A89"/>
<path d="M3344.98 7298.08L3304.2 7268.01L3262.49 7296.83L3279 7249.43L3238.21 7219.36L3289.19 7220.13L3305.7 7172.74L3320.7 7220.61L3371.68 7221.39L3329.97 7250.2L3344.98 7298.08Z" fill="#6C63FF"/>
<path d="M16971.3 12398.4L17999.9 10983.3L16973.4 12550.6L16975.6 12709.8C16900.5 12710.4 16826.1 12709.2 16752.5 12706.4L16803.5 10659.5L16802.1 10643.7L16804 10640.7L16808.9 10447.3L15682.4 8934.29L16807.6 10302.5L16811.5 10343.4L16850.1 8796.94L15877.1 7228.32L16852.8 8525.27L16842.7 5321.4L16842.7 5310.74L16843 5321.23L16907.6 7846.31L17794.3 6820.62L16910.5 8063.84L16929.9 9447.11L17745.8 8097.09L16932.9 9650.48L16943.6 10419.6L18130.3 8539.08L16947.2 10688L16971.3 12398.4Z" fill="#3F3D56"/>
<path d="M3653.46 8663.29L3639.75 8645.31L3642.15 8643.54L3653.94 8659.01L3674.65 8641.57L3695.51 8659.15L3713.55 8641.43L3732.56 8660.11L3730.45 8662.19L3713.55 8645.59L3695.67 8663.15L3674.65 8645.44L3653.46 8663.29Z" fill="#575A89"/>
<path d="M2127.57 7791.02C2140.8 7791.02 2151.52 7780.49 2151.52 7767.5C2151.52 7754.51 2140.8 7743.97 2127.57 7743.97C2114.35 7743.97 2103.63 7754.51 2103.63 7767.5C2103.63 7780.49 2114.35 7791.02 2127.57 7791.02Z" fill="#D0CDE1"/>
<path d="M15953 8891.7C15966.2 8891.7 15977 8881.17 15977 8868.18C15977 8855.18 15966.2 8844.65 15953 8844.65C15939.8 8844.65 15929.1 8855.18 15929.1 8868.18C15929.1 8881.17 15939.8 8891.7 15953 8891.7Z" fill="#D0CDE1"/>
<path d="M2941.89 5828.78C2968.33 5828.78 2989.77 5807.72 2989.77 5781.74C2989.77 5755.75 2968.33 5734.69 2941.89 5734.69C2915.44 5734.69 2894 5755.75 2894 5781.74C2894 5807.72 2915.44 5828.78 2941.89 5828.78Z" fill="#FF6584"/>
<path d="M16937.2 5601.88C16963.7 5601.88 16985.1 5580.82 16985.1 5554.83C16985.1 5528.85 16963.7 5507.79 16937.2 5507.79C16910.8 5507.79 16889.4 5528.85 16889.4 5554.83C16889.4 5580.82 16910.8 5601.88 16937.2 5601.88Z" fill="#FF6584"/>
<path d="M17761.3 6982.6L17720.5 6952.54L17678.8 6981.35L17695.3 6933.95L17654.5 6903.89L17705.5 6904.66L17722 6857.26L17737 6905.14L17788 6905.91L17746.3 6934.73L17761.3 6982.6Z" fill="#6C63FF"/>
</g>
<defs>
<clipPath id="clip0">
<rect width="21568" height="13236" fill="white" transform="translate(0 1741)"/>
</clipPath>
<clipPath id="clip1">
<rect width="2938.95" height="1958.53" fill="white" transform="translate(36.1758 13256.3)"/>
</clipPath>
<clipPath id="clip2">
<rect width="2938.95" height="1958.53" fill="white" transform="translate(16680 12904)"/>
</clipPath>
</defs>
</svg>
